<svg id="Layer_1" data-name="Layer 1" xmlns="http://www.w3.org/2000/svg" viewBox="0 0 954.91 376.45"><defs><style>.cls-1{opacity:0.65;}.cls-2{fill:#fff;}</style></defs><g class="cls-1"><path class="cls-2" d="M639.35,379.59a1.15,1.15,0,0,1-.31,0,1.21,1.21,0,0,1-.86-1.48h0a41.37,41.37,0,0,0,1.23-7.34,1.21,1.21,0,0,1,2.41.19,43.46,43.46,0,0,1-1.29,7.77,1.23,1.23,0,0,1-1.18.9Z" transform="translate(-35.55 -33.78)"/><path class="cls-2" d="M599.51,410.22a42.43,42.43,0,1,1,38.81-59.57,1.21,1.21,0,1,1-2.22,1,40,40,0,1,0,0,32.32,1.21,1.21,0,1,1,2.22,1,42.45,42.45,0,0,1-38.82,25.29Z" transform="translate(-35.55 -33.78)"/><path class="cls-2" d="M640.61,366a1.22,1.22,0,0,1-1.21-1.13,39.77,39.77,0,0,0-1.23-7.34A1.2,1.2,0,0,1,639,356a1.22,1.22,0,0,1,1.49.86h0a41.88,41.88,0,0,1,1.31,7.78,1.21,1.21,0,0,1-1.11,1.3Z" transform="translate(-35.55 -33.78)"/><path class="cls-2" d="M599.51,401.74a33.95,33.95,0,1,1,33.94-33.95A34,34,0,0,1,599.51,401.74Zm0-65.47A31.52,31.52,0,1,0,631,367.79,31.52,31.52,0,0,0,599.51,336.27Z" transform="translate(-35.55 -33.78)"/><path class="cls-2" d="M599.51,345.47a1.21,1.21,0,0,1-1.21-1.21v-3.14a1.21,1.21,0,0,1,2.42,0v3.14A1.21,1.21,0,0,1,599.51,345.47Z" transform="translate(-35.55 -33.78)"/><path class="cls-2" d="M599.51,395.67a1.21,1.21,0,0,1-1.21-1.21v-3.13a1.21,1.21,0,0,1,2.42,0v3.13A1.21,1.21,0,0,1,599.51,395.67Z" transform="translate(-35.55 -33.78)"/><path class="cls-2" d="M616.15,352.36a1.21,1.21,0,0,1-1.21-1.21,1.25,1.25,0,0,1,.35-.86l2.22-2.21a1.21,1.21,0,1,1,1.74,1.68l0,0L617,352a1.21,1.21,0,0,1-.86.35Z" transform="translate(-35.55 -33.78)"/><path class="cls-2" d="M580.65,387.86a1.21,1.21,0,0,1-1.21-1.21,1.25,1.25,0,0,1,.35-.86l2.22-2.21a1.21,1.21,0,0,1,1.71,1.71l-2.21,2.22a1.21,1.21,0,0,1-.86.35Z" transform="translate(-35.55 -33.78)"/><path class="cls-2" d="M618.37,387.86a1.19,1.19,0,0,1-.86-.35l-2.22-2.22a1.21,1.21,0,0,1,1.72-1.71l2.21,2.21a1.21,1.21,0,0,1,0,1.72A1.19,1.19,0,0,1,618.37,387.86Z" transform="translate(-35.55 -33.78)"/><path class="cls-2" d="M582.87,352.36A1.19,1.19,0,0,1,582,352l-2.22-2.22a1.21,1.21,0,1,1,1.69-1.74l0,0,2.21,2.21a1.21,1.21,0,0,1,0,1.72,1.17,1.17,0,0,1-.85.35Z" transform="translate(-35.55 -33.78)"/><path class="cls-2" d="M626.18,369H623a1.21,1.21,0,1,1,0-2.42h3.14a1.21,1.21,0,0,1,0,2.42Z" transform="translate(-35.55 -33.78)"/><path class="cls-2" d="M576,369h-3.14a1.21,1.21,0,0,1,0-2.42H576a1.21,1.21,0,0,1,0,2.42Z" transform="translate(-35.55 -33.78)"/><path class="cls-2" d="M594.57,374.06a1.21,1.21,0,0,1-.85-2.07l4.56-4.56V352a1.22,1.22,0,0,1,2.43,0v15.9a1.22,1.22,0,0,1-.36.86l-4.92,4.92A1.19,1.19,0,0,1,594.57,374.06Z" transform="translate(-35.55 -33.78)"/></g><g class="cls-1"><path class="cls-2" d="M85.85,194.94a14.07,14.07,0,1,0-16.17,0,15.69,15.69,0,0,0-13,15.43v19.52a1.4,1.4,0,0,0,1.4,1.4H97.47a1.41,1.41,0,0,0,1.41-1.4h0V210.37A15.7,15.7,0,0,0,85.85,194.94Zm-19.34-11.5A11.26,11.26,0,1,1,77.77,194.7,11.26,11.26,0,0,1,66.51,183.44Zm29.55,45H59.47V210.37a12.87,12.87,0,0,1,12.85-12.85H83.21a12.87,12.87,0,0,1,12.85,12.85Z" transform="translate(-35.55 -33.78)"/><rect class="cls-2" x="40.81" y="121.52" width="2.81" height="5.63"/><rect class="cls-2" x="90.43" y="160.34" width="5.63" height="2.81" transform="translate(-122.61 79.54) rotate(-45)"/><rect class="cls-2" x="71.77" y="194.7" width="5.63" height="2.81"/><rect class="cls-2" x="71.77" y="180.63" width="5.63" height="2.81"/><rect class="cls-2" x="71.77" y="166.56" width="5.63" height="2.81"/><rect class="cls-2" x="105.92" y="186.26" width="5.63" height="2.81" transform="translate(-89.34 10.27) rotate(-18.45)"/><rect class="cls-2" x="101.54" y="171.66" width="5.63" height="2.81" transform="translate(-84.95 8.14) rotate(-18.45)"/><rect class="cls-2" x="60.88" y="158.94" width="2.81" height="5.63" transform="translate(-131.67 57.62) rotate(-44.99)"/><rect class="cls-2" x="7.04" y="194.7" width="5.63" height="2.81"/><rect class="cls-2" x="7.04" y="180.63" width="5.63" height="2.81"/><rect class="cls-2" x="7.04" y="166.56" width="5.63" height="2.81"/><rect class="cls-2" x="45.4" y="184.85" width="2.81" height="5.63" transform="translate(-181.58 138.97) rotate(-71.57)"/><rect class="cls-2" x="49.76" y="170.26" width="2.81" height="5.63" transform="translate(-164.75 133.1) rotate(-71.56)"/><path class="cls-2" d="M118.58,152.48a4.22,4.22,0,0,1-4.22-4.22,1.41,1.41,0,0,0-2.82,0,4.22,4.22,0,0,1-4.22,4.22,1.41,1.41,0,1,0,0,2.82,4.22,4.22,0,0,1,4.22,4.22,1.41,1.41,0,1,0,2.82,0,4.22,4.22,0,0,1,4.22-4.22,1.41,1.41,0,1,0,0-2.82ZM113,155.3a7.24,7.24,0,0,0-1.41-1.41,7.24,7.24,0,0,0,1.41-1.41,7.24,7.24,0,0,0,1.41,1.41A7.24,7.24,0,0,0,113,155.3Z" transform="translate(-35.55 -33.78)"/><path class="cls-2" d="M48.21,152.48A4.22,4.22,0,0,1,44,148.26a1.41,1.41,0,1,0-2.81,0A4.23,4.23,0,0,1,37,152.48a1.41,1.41,0,0,0,0,2.82,4.23,4.23,0,0,1,4.23,4.22,1.41,1.41,0,1,0,2.81,0,4.22,4.22,0,0,1,4.22-4.22,1.41,1.41,0,0,0,0-2.82Zm-5.63,2.82a7,7,0,0,0-1.41-1.41,7,7,0,0,0,1.41-1.41A7.3,7.3,0,0,0,44,153.89,7.3,7.3,0,0,0,42.58,155.3Z" transform="translate(-35.55 -33.78)"/></g><g class="cls-1"><path class="cls-2" d="M983.26,328.39H975a1.08,1.08,0,0,1,0-2.16h8.22a5,5,0,0,0,0-10.06h-6.87a1.08,1.08,0,0,1,0-2.16h6.87a7.19,7.19,0,1,1,0,14.38Z" transform="translate(-35.55 -33.78)"/><path class="cls-2" d="M981.7,340.33h-8.14a1.08,1.08,0,1,1,0-2.16h8.14a4.89,4.89,0,1,0,0-9.78H975a1.08,1.08,0,0,1,0-2.16h6.66a7.05,7.05,0,0,1,0,14.1Z" transform="translate(-35.55 -33.78)"/><path class="cls-2" d="M980.36,351.85h-6.61a1.08,1.08,0,1,1,0-2.15h6.61a4.69,4.69,0,0,0,0-9.37h-6.79a1.08,1.08,0,0,1,0-2.16h6.79a6.84,6.84,0,1,1,0,13.68Z" transform="translate(-35.55 -33.78)"/><path class="cls-2" d="M956.55,351.85H952.3a1.08,1.08,0,1,1,0-2.15h4.25a1.08,1.08,0,1,1,0,2.15Z" transform="translate(-35.55 -33.78)"/><path class="cls-2" d="M967.28,351.85H963a1.08,1.08,0,0,1,0-2.15h4.26a1.08,1.08,0,1,1,0,2.15Z" transform="translate(-35.55 -33.78)"/><path class="cls-2" d="M945.83,351.62l-.19,0c-4.19-.75-11.7-3.58-14.94-14.13a1.06,1.06,0,0,1,0-.31V312.64a1.08,1.08,0,0,1,.62-1,36.1,36.1,0,0,0,19-29.53,6.8,6.8,0,0,1,.16-1c.71-2.8,2.62-4.57,5.13-4.72a5.81,5.81,0,0,1,3.71,1.13c2.85,2,11.28,9.66,3.93,25.06h20.45a6.79,6.79,0,0,1,0,13.57h-7.28a1.08,1.08,0,0,1,0-2.16h7.28a4.63,4.63,0,1,0,0-9.25h-22.2a1.08,1.08,0,0,1-1.08-1.08,1.09,1.09,0,0,1,.13-.5c7.69-14.51.83-21.53-2.48-23.88a3.74,3.74,0,0,0-2.33-.74,3.65,3.65,0,0,0-3.17,3.09,4.58,4.58,0,0,0-.1.63,38.33,38.33,0,0,1-19.63,31V337c2.78,8.85,8.71,11.67,13.21,12.48a1.08,1.08,0,0,1-.19,2.14Z" transform="translate(-35.55 -33.78)"/><path class="cls-2" d="M927.71,351.85h-8.57a5.12,5.12,0,0,1-5.11-5.11V310.62a5.13,5.13,0,0,1,5.11-5.11h8.57a5.13,5.13,0,0,1,5.11,5.11v36.12A5.11,5.11,0,0,1,927.71,351.85Zm-8.57-44.18a3,3,0,0,0-2.95,2.95v36.12a3,3,0,0,0,2.95,3h8.57a3,3,0,0,0,2.95-3V310.62a3,3,0,0,0-2.95-2.95Z" transform="translate(-35.55 -33.78)"/></g><g class="cls-1"><path class="cls-2" d="M385.58,113.2a1.14,1.14,0,0,1-.9-.45c-.05-.07-5.14-6.84-10.69-15.79a1.13,1.13,0,1,1,1.92-1.2c4.12,6.64,8,12.06,9.67,14.39,4.52-6.23,24.36-34.46,24.36-49.76a24.36,24.36,0,0,0-48.71,0c0,4.77,1.95,11.28,5.79,19.36a1.13,1.13,0,0,1-2,1c-4-8.39-6-15.23-6-20.33a26.62,26.62,0,0,1,53.24,0c0,17.93-24.67,51-25.71,52.36a1.17,1.17,0,0,1-.91.45Z" transform="translate(-35.55 -33.78)"/><path class="cls-2" d="M372,92.62a1.14,1.14,0,0,1-1-.57c-1.3-2.24-2.43-4.27-3.47-6.23a1.14,1.14,0,0,1,.47-1.53,1.15,1.15,0,0,1,1.54.47c1,1.93,2.14,3.94,3.42,6.15a1.13,1.13,0,0,1-1,1.7Z" transform="translate(-35.55 -33.78)"/><path class="cls-2" d="M385.58,79.87a19.08,19.08,0,1,1,19.08-19.08h0A19.11,19.11,0,0,1,385.58,79.87Zm0-35.89a16.81,16.81,0,1,0,16.81,16.81h0A16.83,16.83,0,0,0,385.58,44Z" transform="translate(-35.55 -33.78)"/><path class="cls-2" d="M379.34,78.75a1.14,1.14,0,0,1-1.13-1.14V65.26a1.14,1.14,0,0,1,1.13-1.14h12.49A1.14,1.14,0,0,1,393,65.26V77.6a1.14,1.14,0,1,1-2.27,0V66.39H380.48V77.61A1.14,1.14,0,0,1,379.34,78.75Z" transform="translate(-35.55 -33.78)"/><path class="cls-2" d="M391.83,66.39H379.34a1.14,1.14,0,0,1-1.14-1.13,1.08,1.08,0,0,1,.12-.5l6.24-12.68a1.2,1.2,0,0,1,2,0l6.24,12.68a1.13,1.13,0,0,1-.52,1.52,1.22,1.22,0,0,1-.5.11Zm-10.66-2.27H390l-4.42-9Z" transform="translate(-35.55 -33.78)"/><path class="cls-2" d="M385.58,79.87a1.14,1.14,0,0,1-1.13-1.14V65.26a1.14,1.14,0,1,1,2.27,0V78.73A1.14,1.14,0,0,1,385.58,79.87Z" transform="translate(-35.55 -33.78)"/></g><g class="cls-1"><path class="cls-2" d="M673.35,138.44a1.09,1.09,0,0,0,0-2.17A1.09,1.09,0,1,0,673.35,138.44Z" transform="translate(-35.55 -33.78)"/><path class="cls-2" d="M685.4,145.06a18.05,18.05,0,0,0-18,18,18.51,18.51,0,0,0,18,18,18,18,0,0,0,0-36.07Zm0,33.9a15.84,15.84,0,0,1-11.07-4.79c-10.18-9.94-2.88-26.93,11.07-26.94,21,.87,21,30.86,0,31.73Z" transform="translate(-35.55 -33.78)"/><path class="cls-2" d="M677.27,160.2a1.08,1.08,0,0,0,1.08-1.08,1.39,1.39,0,1,1,2.77,0,1.09,1.09,0,0,0,2.17,0,3.56,3.56,0,1,0-7.11,0A1.08,1.08,0,0,0,677.27,160.2Z" transform="translate(-35.55 -33.78)"/><path class="cls-2" d="M688.66,160.2a1.08,1.08,0,0,0,1.08-1.08,1.39,1.39,0,1,1,2.77,0,1.09,1.09,0,0,0,2.17,0,3.56,3.56,0,1,0-7.11,0A1.08,1.08,0,0,0,688.66,160.2Z" transform="translate(-35.55 -33.78)"/><path class="cls-2" d="M672.55,163.05a12.91,12.91,0,0,0,2.08,7,1.09,1.09,0,0,0,1.51.31,1.08,1.08,0,0,0,.31-1.5,10.6,10.6,0,0,1-1.68-4.76h21.32a10.75,10.75,0,0,1-15.85,8.29,1.09,1.09,0,0,0-1,1.9,12.93,12.93,0,0,0,19.13-11.28,1.09,1.09,0,0,0-1.09-1.08h-23.6a1.08,1.08,0,0,0-1.08,1.08Z" transform="translate(-35.55 -33.78)"/><path class="cls-2" d="M697.41,143.17a18,18,0,0,0,11-3.72,13.9,13.9,0,0,0,1.64.78,1.08,1.08,0,0,0,.79,0c.31-.12,7.64-3,7.64-8.75a4.83,4.83,0,0,0-3.1-4.52A18,18,0,0,0,712,114.55a1.09,1.09,0,0,0-1.76,1.28,15.81,15.81,0,0,1,3,10.86,4.16,4.16,0,0,1-6.06,0,4.8,4.8,0,0,0-4.77,4.82c0,3,2.06,5.27,4,6.72-10.43,7.3-24.62-.64-24.86-13.06-.11-12.58,14.43-20.29,24.76-13.13,1.13.76,2.4-1,1.22-1.79-11.75-8.14-28.27.62-28.15,14.92a18.5,18.5,0,0,0,18,18Zm7.13-11.69a2.63,2.63,0,0,1,2.6-2.65,2.56,2.56,0,0,1,2.3,1.44,1.17,1.17,0,0,0,1,.6,1.08,1.08,0,0,0,1-.6,2.58,2.58,0,0,1,2.31-1.44,2.62,2.62,0,0,1,2.59,2.65c0,3.6-4.5,5.93-5.87,6.56-1.37-.62-5.87-2.94-5.87-6.56Z" transform="translate(-35.55 -33.78)"/><path class="cls-2" d="M697,127.33a1.09,1.09,0,0,0,0,2.17,1,1,0,0,1,1,.94.9.9,0,0,1-.52.81,1.09,1.09,0,0,0,0,1.94.9.9,0,0,1,.51.83.94.94,0,0,1-1,.92,1.08,1.08,0,0,0,0,2.16A3.11,3.11,0,0,0,700,134a3,3,0,0,0-.56-1.8,3,3,0,0,0,.59-1.79,3.12,3.12,0,0,0-3.1-3.12Z" transform="translate(-35.55 -33.78)"/><path class="cls-2" d="M688.16,122.39a1.09,1.09,0,0,0,2.17,0,1.39,1.39,0,0,1,2.77,0,1.09,1.09,0,0,0,2.17,0A3.56,3.56,0,0,0,688.16,122.39Z" transform="translate(-35.55 -33.78)"/><path class="cls-2" d="M701.72,122.39a1.39,1.39,0,0,1,2.77,0,1.09,1.09,0,0,0,2.17,0,3.56,3.56,0,0,0-7.11,0A1.09,1.09,0,0,0,701.72,122.39Z" transform="translate(-35.55 -33.78)"/><path class="cls-2" d="M740.56,151.19c.83-2.67-.2-4-2.33-4.77-6.82-10.32-23-10.4-29.73,0-2.4.3-3,2.71-2.3,4.68-3.83,11.4,5.12,23.71,17.16,23.55,11.67.07,21-12.3,17.2-23.46Zm-2.68-2.63a.89.89,0,0,1,.8,1.14L736.83,156a3.28,3.28,0,0,1-3.14,2.38h-3.56A3.26,3.26,0,0,1,727,156l-1.81-5.83a34.35,34.35,0,0,1,12.69-1.64Zm-14.52-7.8a15.86,15.86,0,0,1,12.1,5.6,33.19,33.19,0,0,0-11.83,2.11h-.54a33.17,33.17,0,0,0-11.82-2.11A15.87,15.87,0,0,1,723.36,140.76Zm-15.19,8.17a.9.9,0,0,1,.68-.37,34.07,34.07,0,0,1,12.68,1.64L719.72,156a3.25,3.25,0,0,1-3.12,2.3H713a3.29,3.29,0,0,1-3.15-2.39L708,149.7a.91.91,0,0,1,.13-.77Zm26.27,18.77c-10.3,10.52-27.79,2.32-26.91-12.08l.28.92a5.44,5.44,0,0,0,5.23,4h3.56a5.41,5.41,0,0,0,5.19-3.82l1.57-5.06,1.57,5.06a5.41,5.41,0,0,0,5.2,3.82h3.56a5.46,5.46,0,0,0,5.23-3.95l.27-.93A15.74,15.74,0,0,1,734.44,167.7Z" transform="translate(-35.55 -33.78)"/><path class="cls-2" d="M728.76,163.42a7.68,7.68,0,0,1-10.8,0,1.08,1.08,0,0,0-1.53,1.53,9.83,9.83,0,0,0,13.86,0,1.08,1.08,0,0,0-1.53-1.53Z" transform="translate(-35.55 -33.78)"/><path class="cls-2" d="M711.66,153.62a1.1,1.1,0,0,0,.77-.31l1.54-1.55c1-1-.53-2.53-1.53-1.53l-1.55,1.54a1.09,1.09,0,0,0,.77,1.85Z" transform="translate(-35.55 -33.78)"/><path class="cls-2" d="M713.65,156.25a1.08,1.08,0,0,0,1.54,0l3.46-3.46c1-1-.53-2.53-1.54-1.53l-3.46,3.46A1.09,1.09,0,0,0,713.65,156.25Z" transform="translate(-35.55 -33.78)"/><path class="cls-2" d="M728.86,153.62a1.08,1.08,0,0,0,.77-.31l1.54-1.55c1-1-.53-2.53-1.53-1.53l-1.54,1.54a1.09,1.09,0,0,0,.76,1.85Z" transform="translate(-35.55 -33.78)"/><path class="cls-2" d="M730.86,156.25a1.07,1.07,0,0,0,1.53,0l3.46-3.46c1-1-.53-2.53-1.53-1.53l-3.46,3.46A1.07,1.07,0,0,0,730.86,156.25Z" transform="translate(-35.55 -33.78)"/><path class="cls-2" d="M722.9,119a1.09,1.09,0,1,0,0-2.17A1.09,1.09,0,0,0,722.9,119Z" transform="translate(-35.55 -33.78)"/><path class="cls-2" d="M730.44,133.3a1.09,1.09,0,1,0,0-2.17A1.09,1.09,0,0,0,730.44,133.3Z" transform="translate(-35.55 -33.78)"/><path class="cls-2" d="M708.23,176.43a1.09,1.09,0,0,0,0,2.17A1.09,1.09,0,1,0,708.23,176.43Z" transform="translate(-35.55 -33.78)"/></g><g class="cls-1"><path class="cls-2" d="M312.6,302.59a1.29,1.29,0,0,0-1.81.1,14.27,14.27,0,0,1-21.19,0,1.29,1.29,0,1,0-1.91,1.72,16.84,16.84,0,0,0,25,0A1.29,1.29,0,0,0,312.6,302.59Z" transform="translate(-35.55 -33.78)"/><path class="cls-2" d="M300.2,266.33a29.52,29.52,0,1,0,29.51,29.52A29.56,29.56,0,0,0,300.2,266.33Zm0,56.47a27,27,0,1,1,26.94-26.95A27,27,0,0,1,300.2,322.8Z" transform="translate(-35.55 -33.78)"/><path class="cls-2" d="M310.46,286.87a6.42,6.42,0,0,0-6.41,6.41,1.28,1.28,0,1,0,2.56,0,3.85,3.85,0,0,1,7.7,0,1.29,1.29,0,1,0,2.57,0A6.43,6.43,0,0,0,310.46,286.87Z" transform="translate(-35.55 -33.78)"/><path class="cls-2" d="M293.78,293.28a1.29,1.29,0,1,0,2.57,0,6.42,6.42,0,0,0-12.84,0,1.29,1.29,0,1,0,2.57,0,3.85,3.85,0,0,1,7.7,0Z" transform="translate(-35.55 -33.78)"/></g></svg>